:SAMPLES-PER-SECOND 30
:FRAME-RANGE 1-2045
:FULLY-SPECIFIED
:DEGREES
1023
root  -57.732 30.6931 -31.2609 13.036 10.537 -13.0798
RightUpLeg  -58.713 1.5943 -15.2239
RightLeg  41.6846 5.58577 5.0309
RightFoot  -4.1012 -1.96314 29.9261
RightToes  -5.28216e-011 1.2921e-014 -6.02303e-014
Spine  34.9181 -2.86736 -6.99163
Spine1  -1.16934 -4.47171 1.22966
HEad  -12.385 8.94764 9.03752
LeftShoulder1  4.68043 -18.1427 -15.1812
LeftArm  -12.5671 -51.1969 -62.4393
LeftForeArm  4.10488 6.59919 -4.44963
LeftHand  0.0242627 3.85191 -3.64784
RightShoulder  2.20949 7.77811 13.0574
RightArm  -44.2199 54.9095 39.3443
RightForeArm  16.8356 -3.46056 -13.56
RightHand  0.109846 -2.89557 6.01225
LeftUpLeg  -50.2442 11.301 34.0678
LeftLeg  72.5078 -1.82032 -5.51682
LeftFoot  -33.7559 -2.42257 -13.2056
LeftToes  9.43379e-011 5.24309e-011 -4.66411e-011
1024
root  -56.3987 30.5701 -31.8479 11.2618 7.54936 -14.8706
RightUpLeg  -55.6595 4.20431 -16.0392
RightLeg  36.1913 5.76376 4.26486
RightFoot  -1.9013 -2.67676 31.4942
RightToes  -5.28216e-011 1.2921e-014 -6.02303e-014
Spine  33.8881 -3.362 -10.8857
Spine1  -0.105914 -6.60629 3.30373
HEad  -10.3163 10.2034 9.84134
LeftShoulder1  4.86198 -18.6072 -15.5747
LeftArm  -9.84925 -52.8781 -65.6849
LeftForeArm  3.9203 6.67283 -4.89743
LeftHand  0.0209876 3.91689 -3.57637
RightShoulder  2.09775 6.63348 14.3389
RightArm  -46.3474 52.2938 35.3215
RightForeArm  17.0635 -3.58246 -12.8875
RightHand  0.103736 -3.02113 6.07164
LeftUpLeg  -49.1811 11.3041 33.7877
LeftLeg  75.6061 -1.09329 -3.68682
LeftFoot  -34.6556 -2.54111 -13.2816
LeftToes  9.43379e-011 5.24309e-011 -4.66411e-011
1025
root  -54.8788 30.5962 -32.4449 9.825 4.07983 -16.2164
RightUpLeg  -51.7578 5.73221 -16.3299
RightLeg  29.1076 6.81444 3.8685
RightFoot  -2.03594 -2.44454 29.2546
RightToes  -5.28216e-011 1.2921e-014 -6.02303e-014
Spine  33.267 -3.88856 -14.5938
Spine1  0.121474 -8.82963 5.61733
HEad  -7.8483 11.3568 10.1466
LeftShoulder1  5.02431 -18.7694 -16.1962
LeftArm  -7.39948 -54.4092 -68.7339
LeftForeArm  6.17404 6.74141 -5.20537
LeftHand  0.0451002 3.49563 -4.13228
RightShoulder  1.94513 5.24161 16.1323
RightArm  -48.2611 50.3973 30.8711
RightForeArm  17.5945 -3.72945 -12.0724
RightHand  0.124302 -2.79876 6.41773
LeftUpLeg  -47.875 11.786 32.356
LeftLeg  78.0134 -0.544709 -1.51177
LeftFoot  -35.6485 -2.63269 -13.1769
LeftToes  9.43379e-011 5.24309e-011 -4.66411e-011
1026
root  -53.4205 30.7872 -32.8977 9.491 -0.312225 -17.4785
RightUpLeg  -48.016 7.99627 -16.4974
RightLeg  21.1974 4.09373 1.54198
RightFoot  -7.29806 -0.982643 25.9891
RightToes  -5.28216e-011 1.2921e-014 -6.02303e-014
Spine  31.3988 -4.22499 -18.1726
Spine1  -0.0606129 -10.2589 7.7752
HEad  -5.18543 11.9766 10.0874
LeftShoulder1  4.99886 -18.5255 -16.3496
LeftArm  -4.26976 -55.5091 -72.4324
LeftForeArm  6.33578 6.79987 -5.54935
LeftHand  0.0723348 3.0572 -4.59685
RightShoulder  1.66347 3.83071 16.7054
RightArm  -50.3864 47.5791 27.8717
RightForeArm  16.4176 -1.18154 -11.285
RightHand  0.176128 -2.39497 7.48123
LeftUpLeg  -46.1019 13.7526 30.7351
LeftLeg  79.1052 -0.182138 0.612682
LeftFoot  -36.609 -2.67112 -12.8605
LeftToes  9.43379e-011 5.24309e-011 -4.66411e-011
1027
root  -51.9699 31.1139 -33.2939 9.76234 -5.26506 -19.3578
RightUpLeg  -44.1753 6.29145 -11.9031
RightLeg  14.008 0.145638 -0.777763
RightFoot  -11.2977 -0.0840142 17.6105
RightToes  -5.28216e-011 1.2921e-014 -6.02303e-014
Spine  29.2304 -5.10695 -19.3181
Spine1  -0.591882 -11.2149 8.51598
HEad  -2.42054 12.2822 9.90381
LeftShoulder1  4.78029 -18.4505 -15.3414
LeftArm  -1.06518 -56.8744 -75.889
LeftForeArm  7.28966 5.10148 -6.10644
LeftHand  0.0920686 2.90184 -5.20633
RightShoulder  1.45351 2.81241 17.1633
RightArm  -52.6761 44.0545 25.7013
RightForeArm  15.4151 3.87734 -10.4182
RightHand  0.30306 -1.38433 9.09607
LeftUpLeg  -44.2041 16.195 29.6229
LeftLeg  79.3126 0.264091 3.53522
LeftFoot  -37.1384 -2.62921 -12.423
LeftToes  9.43379e-011 5.24309e-011 -4.66411e-011
